<svg xmlns="http://www.w3.org/2000/svg" viewBox="0 0 122.88 95.13"><path d="M100.95 23.32c0-2.09 1.69-3.78 3.78-3.78s3.78 1.69 3.78 3.78v48.5c0 2.09-1.69 3.78-3.78 3.78s-3.78-1.69-3.78-3.78v-48.5zM0 31.82c0-2.09 1.69-3.78 3.78-3.78s3.78 1.69 3.78 3.78v31.49c0 2.09-1.69 3.78-3.78 3.78S0 65.4 0 63.31V31.82zm14.42-8.5c0-2.09 1.69-3.78 3.78-3.78s3.78 1.69 3.78 3.78v48.5c0 2.09-1.69 3.78-3.78 3.78s-3.78-1.69-3.78-3.78v-48.5zM28.9 13.9c0-2.08 1.67-3.76 3.72-3.76 2.06 0 3.72 1.68 3.72 3.76v67.34c0 2.08-1.67 3.76-3.72 3.76-2.06 0-3.72-1.68-3.72-3.76V13.9zM43.26 3.78c0-2.09 1.69-3.78 3.78-3.78s3.78 1.69 3.78 3.78v87.57c0 2.09-1.69 3.78-3.78 3.78s-3.78-1.69-3.78-3.78V3.78zm43.27 28.04c0-2.09 1.69-3.78 3.78-3.78s3.78 1.69 3.78 3.78v31.49c0 2.09-1.69 3.78-3.78 3.78s-3.78-1.69-3.78-3.78V31.82zm-14.42-8.5c0-2.09 1.69-3.78 3.78-3.78s3.78 1.69 3.78 3.78v48.5c0 2.09-1.69 3.78-3.78 3.78s-3.78-1.69-3.78-3.78v-48.5zM57.74 13.9c0-2.08 1.67-3.76 3.72-3.76 2.06 0 3.72 1.68 3.72 3.76v67.34c0 2.08-1.67 3.76-3.72 3.76-2.06 0-3.72-1.68-3.72-3.76V13.9zm57.69 0c0-2.08 1.67-3.76 3.72-3.76 2.06 0 3.72 1.68 3.72 3.76v67.34c0 2.08-1.67 3.76-3.72 3.76-2.06 0-3.72-1.68-3.72-3.76V13.9z"/></svg>