<svg fill="currentColor" xmlns="http://www.w3.org/2000/svg"><path d="M2422.491 2676.31h1886.133L4126.358 591.07h-90.667l143.2 1787.453a37.12 37.12 0 01-9.613 27.96c-7.014 7.52-16.774 11.893-27.04 11.893-606.8 1.934-1159.093 84.32-1719.747 257.934zm1926.413 73.8H2192.891c-18 0-33.36-12.974-36.386-30.72-3-17.747 7.213-35.04 24.2-41.04 632.186-221.214 1243.813-327.507 1921.453-333.507L3958.945 557.15c-.814-10.267 2.64-20.4 9.666-27.974 6.96-7.573 16.774-11.84 27.094-11.84h164.426c19.173 0 35.093 14.587 36.813 33.654l188.72 2159a37.153 37.153 0 01-9.546 28.173c-6.974 7.627-16.84 11.947-27.214 11.947"/><path d="M77.175 2676.31h1886.103c-560.64-173.614-1112.907-256-1719.72-257.934-10.28 0-20.067-4.373-27.04-11.893a36.921 36.921 0 01-9.627-27.96l143.2-1787.453h-90.653zm2116.756 73.8a3.4 3.4 0 00-1.04 0H36.9a36.893 36.893 0 01-27.205-11.947 36.98 36.98 0 01-9.556-28.173l188.723-2159c1.669-19.067 17.617-33.654 36.764-33.654h164.44c10.306 0 20.133 4.267 27.106 11.84a36.89 36.89 0 019.68 27.974L283.625 2344.843c676.24 6 1286.746 111.88 1917.573 332.187 16.92 3.36 29.627 18.306 29.627 36.213 0 20.333-16.52 36.867-36.894 36.867"/><path d="M3819.598 2192.99c-550.947 0-1019.813 136.093-1426.427 415.133 558.04-173.613 1107.467-257.947 1708.987-263.28L3937.438 288.79c-36.307.56-72.213 1.413-107.76 2.586l134.053 1863.68c.76 10.374-2.96 20.64-10.173 28.174-7.227 7.533-17.093 11.96-27.76 11.386a3442.2 3442.2 0 00-106.2-1.626zM2192.89 2750.163a36.933 36.933 0 01-32.146-18.827c-8.76-15.56-5.16-35.186 8.626-46.573 459.96-380.6 999.747-565.613 1650.227-565.613 22.333 0 44.867.213 67.64.666L3753.29 258.576c-.72-9.96 2.64-19.826 9.36-27.253a36.963 36.963 0 0126.04-12.307c59.747-2.346 120.52-3.866 182.454-4.373h.32c19.226 0 35.226 14.747 36.813 33.92l170.613 2129.96a37.12 37.12 0 01-9.613 27.96c-7.014 7.52-16.774 11.893-27.04 11.893-685.08 2.147-1300.613 106.894-1937.173 329.654-3.987 1.413-8.107 2.133-12.174 2.133"/><path d="M283.625 2344.843c601.493 5.333 1150.933 89.667 1708.973 263.28-406.613-279.04-875.493-415.133-1426.44-415.133-34.867 0-70.333.52-106.2 1.626-10.427.574-20.493-3.853-27.733-11.386-7.254-7.534-10.934-17.8-10.2-28.174l134.08-1863.68a6137.024 6137.024 0 00-107.787-2.586zm1909.266 405.32c-4.066 0-8.186-.72-12.186-2.133-636.547-222.76-1252.094-327.507-1937.147-329.654-10.28 0-20.067-4.373-27.04-11.893a36.921 36.921 0 01-9.627-27.96l170.614-2129.96c1.546-19.173 17.56-33.92 36.786-33.92h.334c61.92.507 122.72 2.027 182.493 4.373 9.973.4 19.373 4.88 26.04 12.307 6.667 7.427 10.013 17.293 9.307 27.253L498.57 2119.816c22.72-.453 45.28-.666 67.587-.666 650.493 0 1190.307 185.013 1650.253 565.613 13.774 11.387 17.4 31.013 8.614 46.573a36.897 36.897 0 01-32.134 18.827"/><path d="M2229.785 565.736v2070.507c446.68-347.84 967.613-517.093 1589.813-517.093 22.373 0 44.867.213 67.64.666l-146.613-2037.8c-759.107-47.293-1247.854 110.254-1510.84 483.72zM2192.89 2750.11a37.05 37.05 0 01-15.72-3.52c-12.946-6.094-21.186-19.107-21.186-33.347V554.203c0-7.48 2.28-14.76 6.493-20.907C2443.585 124.323 2966.77-45.69 3777.705 10.456c18.306 1.28 32.96 15.814 34.266 34.187l151.147 2101.76a37.563 37.563 0 011.733 11.307c0 20.533-15.92 37.013-37.426 36.906h-1.627a3444.758 3444.758 0 00-106.2-1.626c-632.573 0-1156.987 179.426-1603.187 548.626a36.899 36.899 0 01-23.52 8.494"/><path d="M566.158 2119.15c622.227 0 1143.147 169.253 1589.827 517.093V565.736C1892.998 192.27 1404.21 34.723 645.145 82.016l-146.574 2037.8c22.72-.453 45.254-.666 67.587-.666zm1626.733 630.96a36.872 36.872 0 01-23.52-8.494c-446.2-369.2-970.613-548.626-1603.213-548.626-34.92 0-70.293.52-106.2 1.626-10.427.574-20.493-3.853-27.733-11.386-7.254-7.534-10.934-17.8-10.2-28.174L573.838 44.643c1.307-18.373 15.933-32.907 34.267-34.187 810.72-56.24 1334.093 113.867 1615.186 522.84a36.775 36.775 0 016.494 20.907v2159.04c0 14.24-8.24 27.253-21.187 33.347a36.992 36.992 0 01-15.707 3.52"/><path d="M2005.491 2750.11c28 38.4 97.307 71.546 187.4 71.546 90.08 0 159.4-33.146 187.4-71.546zm187.4 145.293c-154.04 0-274.693-80-274.693-182.16 0-20.453 16.507-36.933 36.893-36.933h475.6c20.387 0 36.894 16.48 36.894 36.933 0 102.16-120.654 182.16-274.694 182.16"/></svg>