<svg fill="currentColor" xmlns="http://www.w3.org/2000/svg" version="1.0" viewBox="0 0 64 64"><path d="M15.5 8.6c-1.6.2-4.9 1.4-7.2 2.6C5 12.9 4 14.1 3.5 16.7c-.3 1.8-.3 3.8 0 4.3 1 1.6 3.3 1.1 3.8-.8.3-.9.5 3 .6 8.8.1 5.8.4 12.2.7 14.2.6 3.4 1 3.8 3.5 3.8 1.9 0 2.9-.5 2.9-1.5 0-1.1 1.1-1.5 4-1.5 5.4 0 5.1-2-.2-2.2l-4.3-.1L19 41l4.5-.7-5.2-.1c-3-.1-5.3.2-5.3.8 0 .5-.7 1-1.5 1-.9 0-1.5-.9-1.5-2.5 0-2.2.3-2.5 2.4-1.9 3.1.7 4.5-1.4 2.2-3.2-1-.7-2.4-1-3.2-.7-.8.3-1.4-.1-1.4-1 0-1.1 1.7-1.7 6.5-2.2 3.6-.3 6.3-1.1 6-1.6-.4-.5.8-.9 2.4-.9 1.7 0 3.1-.5 3.1-1 0-.6-3.7-1-9-1h-9v-6.3c0-8.9.3-9.1 10.7-9.1 11.9-.1 12.3.1 12.3 6.8 0 6.3 1.9 8.8 2.1 2.9.2-3 .3-3.2.6-1.1.3 2 1 2.8 2.4 2.8 1.6 0 1.9-.7 1.9-4 0-3.6-.4-4.1-4.2-6.4-4.3-2.5-13.8-3.9-20.3-3zm2.3 20.1c-1.6.2-4 .2-5.5 0-1.6-.2-.3-.4 2.7-.4s4.3.2 2.8.4zM13.5 45c-.3.5-1 1-1.6 1-.5 0-.9-.5-.9-1 0-.6.7-1 1.6-1 .8 0 1.2.4.9 1z"/><path d="M31.4 25.8c-.6.4-1.6 1.7-2.3 2.9-.7 1.5-2.1 2.3-3.6 2.3-2.7 0-3.4 2.4-1 3.4 1.2.4 1.3 1 .5 2.8-.6 1.4-.7 4.7-.3 8.3.7 5.5 1 6 3.5 6.3 1.9.2 2.8-.2 3.3-1.7.6-1.9 1.4-2.1 9.2-2.1 7.6 0 8.5.2 9 2 .4 1.4 1.4 2 3.3 2 2.4 0 2.8-.5 3.4-3.7.9-5.9.7-10.8-.6-12.1-.9-.9-.7-1.3.5-1.8 3.4-1.3 1.8-4-2-3.5-.7.1-1.7-.9-2.4-2.1-.7-1.3-1.7-2.6-2.3-3-1.4-1-16.8-1-18.2 0zM50 28.9c.5 1.1 1 2.2 1 2.5 0 .3-4.7.6-10.5.6S30 31.7 30 31.4s.5-1.4 1-2.5c.9-1.6 2.2-1.9 9.5-1.9s8.6.3 9.5 1.9zm3 6.1c0 .5-.9 1-2 1s-2.3.6-2.5 1.2c-.6 1.6-14.2 1.5-15.8-.1-.6-.6-1.9-1.1-2.9-1.1s-1.8-.5-1.8-1c0-.6 4.8-1 12.5-1s12.5.4 12.5 1zm-12.1 5.4c9.5 0 12.5-.4 13.2-1.5.6-1 .9-.1.9 2.8 0 4.8-.9 5.8-3.6 3.8-2.6-2-19.2-2-21.8 0-2.6 2-3.6 1-3.6-3.6 0-3.4.2-3.8 1.3-2.7 1 1 4.7 1.3 13.6 1.2zm4.4 6.3c-2.3.2-6.4.2-9 0-2.6-.2-.7-.3 4.2-.3 5 0 7.1.1 4.8.3zM29.5 49c.3.5-.1 1-.9 1-.9 0-1.6-.5-1.6-1 0-.6.4-1 .9-1 .6 0 1.3.4 1.6 1zM54 49c0 .5-.7 1-1.6 1-.8 0-1.2-.5-.9-1 .3-.6 1-1 1.6-1 .5 0 .9.4.9 1z"/><path d="M36 42c0 .5 2 1 4.4 1 2.5 0 4.8-.5 5.1-1 .4-.6-1.3-1-4.4-1-2.8 0-5.1.4-5.1 1zm-19-5c0 .5 1.4 1 3 1 1.7 0 3-.5 3-1 0-.6-1.3-1-3-1-1.6 0-3 .4-3 1z"/></svg>