<svg fill="currentColor" xmlns="http://www.w3.org/2000/svg" data-name="Layer 1" viewBox="0 0 122.88 53.49"><path d="M93.43.94h13c4 0 6.3 3.39 7.27 7.27l2.3 9.41 1.34-2.54c6.95-.4 7.57 3.64.22 7.12l1.22 1.8c4.84 5 4.38 9.93 3.63 22.21v4a2.27 2.27 0 01-2.27 2.27h-9.71a2.27 2.27 0 01-2.27-2.27v-1.76h-3.6v-2.08c.18-2.92.34-5.49.42-7.79l5.73-.05a3.88 3.88 0 001.93-.53 3.3 3.3 0 001.17-1.3l.93-2.26c.69-1.76.14-2.61-1.89-2.39L105 33a19.87 19.87 0 00-2.65-9.45 11.6 11.6 0 001.4-1.91 10.55 10.55 0 00.73-1.57h8.14l-2.35-9.76c-.64-3-2.49-5.55-5.55-5.55H95A21.78 21.78 0 0093.43.94zm-62.16 20.8c-7-3.54-6.17-7.49.83-7.08l1.57 2.94 3.23-10C38.17 3.59 40.29 0 44.44 0H81c4.15 0 6.53 3.52 7.54 7.54L91 17.29l1.4-2.63c7.2-.42 7.85 3.77.22 7.38l1.24 1.9c5 5.15 4.54 10.29 3.76 23v4.18a2.36 2.36 0 01-2.35 2.36h-10.1a2.36 2.36 0 01-2.35-2.36v-1.88H40.08v1.89a2.36 2.36 0 01-2.36 2.36h-10a2.36 2.36 0 01-2.36-2.36v-5.8c-.76-9.76-1.84-18.56 5.93-23.59zm12.84 11.58l-8.93-1.13c-2.11-.23-2.68.66-2 2.47l1 2.35a3.36 3.36 0 001.2 1.34 4.09 4.09 0 002 .56l8 .06c1.92 0 2.75-.77 2.15-2.54a4.3 4.3 0 00-3.4-3.11zm34.67 0l8.93-1.13c2.1-.23 2.67.66 2 2.47L88.7 37a3.38 3.38 0 01-1.21 1.34 4.06 4.06 0 01-2 .56l-8 .06c-1.93 0-2.76-.77-2.16-2.54a4.31 4.31 0 013.41-3.11zM37 19.82h50.38L85 9.7C84.28 6.62 82.36 4 79.2 4H45.81C42.65 4 41 6.69 40.06 9.7L37 19.82zM32.15.94H16.47c-4 0-6.3 3.39-7.27 7.27l-2.35 9.41-1.34-2.54c-6.95-.4-7.57 3.64-.22 7.12L4.1 24C-.74 29-.29 34 .47 46.25v4a2.27 2.27 0 002.27 2.27h9.71a2.27 2.27 0 002.27-2.27v-1.8h3.62v-3.09l-.06-.74c-.16-2.08-.33-4.11-.42-6.09l-5.73-.05a3.88 3.88 0 01-1.92-.48A3.3 3.3 0 019 36.65l-.93-2.26C7.42 32.63 8 31.78 10 32l7.88 1a21.93 21.93 0 013.19-10.85c-.17-.25-.31-.5-.45-.74a11.35 11.35 0 01-.62-1.35h-9.7l2.35-9.76c.64-3 2.49-5.55 5.55-5.55h12.3A26.67 26.67 0 0132.15.94z" fill-rule="evenodd"/></svg>