<svg fill="currentColor" xmlns="http://www.w3.org/2000/svg" viewBox="0 0 256 256"><path d="M125.1 59.5c-8.6 1.3-15.1 8.3-15.9 16.8-.2 2.9-.1 3.5 1 4.7 2.6 2.8 7.5 1 7.5-2.8 0-1.9 1.4-5.4 2.8-6.9 4.8-5.3 13.8-3.8 16.8 2.7 2.3 5.1.9 8.8-6 15.6-5.1 5.1-7.2 8.6-7.6 12.6-.3 2.4-.3 2.4-3.4 3.1-1.7.4-5 1.7-7.3 2.8-4.4 2.2-9.4 6.8-19 17.5-8.6 9.5-17.2 15-47.2 29.7-21.8 10.7-25.7 12.9-30 16.8-3.4 3.1-5.2 5.9-6.2 10-1.8 6.7.7 12.3 6.3 13.8 3.3.9 219 .9 222.2 0 5.6-1.5 8.1-7.1 6.3-13.8-1-4.1-2.8-6.9-6.2-10-4.3-4-8.2-6.1-30-16.8-30-14.8-38.7-20.2-47.2-29.7-9.6-10.7-14.6-15.3-19-17.5-2.4-1.1-5.7-2.4-7.6-2.8-1.8-.4-3.4-.9-3.4-1.1 0-1.8 2.4-5.3 6.9-9.9 6.7-6.9 7.8-9.1 7.8-16.1 0-4.3-.2-5.6-1.4-8-3.7-7.6-12-12-20.2-10.7zm12.3 55.5c4.5 2.1 8 5.1 14.2 12.3 11.5 13.5 23.2 21.4 51.2 34.7 24 11.4 30.3 15.1 32.8 19.4 1.1 2 2 6.1 1.3 6.1-.1 0-19.5-9.6-43.2-21.3-23.6-11.7-44.7-22-47-22.9-12.8-5.1-25.3-5-38.2.3-2.1.8-23 11-46.5 22.7s-42.8 21.2-43 21.2c-.7 0 .1-4.1 1.3-6.1 2.5-4.3 9.2-8.2 33.4-19.6 26.9-12.7 38.7-20.7 49.4-33 11.3-13.2 15.2-15.4 25.8-15.2 4.4.1 6.3.5 8.5 1.4zm-.1 34.6c6.1 1.6 7.5 2.2 45.3 21l34.2 16.9H39.3l34.2-16.9c18.8-9.4 35.7-17.6 37.6-18.4 8.7-3.8 18-4.7 26.2-2.6z"/></svg>