<svg fill="currentColor" xmlns="http://www.w3.org/2000/svg" viewBox="0 0 256 256"><path d="M66 10.9c-1.1.5-2.4 1.6-3 2.4l-1.1 1.6-.1 48.3-.1 48.3H38.9c-22.6 0-22.7 0-24.8 1-1.5.8-2.4 1.6-3.1 3.1l-1 2v122.2l1.1 2c.7 1.5 1.6 2.4 3.1 3.1l2 1h223.6l2-1.1c1.5-.7 2.4-1.6 3.1-3.1l1-2v-68c0-66.1 0-68-.9-69.9-.5-1.1-1.5-2.4-2.3-2.8-.7-.5-17.4-8.6-36.9-18.1l-35.5-17.2V40c0-23.7 0-23.8-1-25.8-.8-1.5-1.6-2.4-3.1-3.1l-2-1H116c-45.9-.1-48.2-.1-50 .8zm93.3 56.5l-.1 46.4-22.9 12.2-22.8 12.1-.2-11.7-.2-11.8-1.5-1.5-1.5-1.5-18.7-.1-18.7-.1V21.1h86.6v46.3zm44 24.4l31.4 15.3.1 63.9.1 63.9H113.3l.1-42.2.1-42.3 27.2-14.4c14.9-8 27.7-15 28.3-15.6l1.2-1.2.1-21.7c.1-19.2.2-21.6.8-21.3.4.2 14.9 7.2 32.2 15.6zm-101.1 86.9v56.2H21.1V122.5h81.2l-.1 56.2z"/><path d="M93.9 58.9v8.3h16.6V50.6H93.9v8.3zm31.3 0v8.3h16.6V50.6h-16.6v8.3zM93.9 91.1v8.3h16.6V82.8H93.9v8.3zm31.3 0v8.3h16.6V82.8h-16.6v8.3zm67.3 43.4v10.1h24v-20.2h-24v10.1zM128 170.4v10.1h24v-20.2h-24v10.1zm32.3 0v10.1h24v-20.2h-24v10.1zm32.2 0v10.1h24v-20.2h-24v10.1zm-64.5 36v10.1h24v-20.2h-24v10.1zm64.5 0v10.1h24v-20.2h-24v10.1zm-151.2-60v7.4h14.8V139H41.3v7.4zm29.5 0v7.4h14.8V139H70.8v7.4zm-29.5 29.5v7.4h14.8v-14.8H41.3v7.4zm29.5 0v7.4h14.8v-14.8H70.8v7.4zm-14.7 30.5v10.1h14.8v-20.2H56.1v10.1z"/></svg>