<svg fill="currentColor" xmlns="http://www.w3.org/2000/svg" viewBox="0 0 512 512"><path d="M278 158a8 8 0 008-8V79a8 8 0 00-16 0v71a8 8 0 008 8zM43.5 228h53a8 8 0 000-16h-53a8 8 0 000 16zm174 0h26a8 8 0 000-16h-26a8 8 0 000 16zm-54 0h26a8 8 0 000-16h-26a8 8 0 000 16zm-52.157 148.343a8 8 0 0011.314 11.314l32-32a8 8 0 00-11.314-11.314l-32 32zm197.314-49.5a8.002 8.002 0 00-11.314 0l-61.5 61.5a8 8 0 0011.314 11.314l61.5-61.5a8 8 0 000-11.314zm14.686 22l-32 32a8 8 0 0011.314 11.314l32-32a8 8 0 00-11.314-11.314z"/><path d="M487 1H251c-13.234 0-24 10.767-24 24v150H25c-13.234 0-24 10.767-24 24v288c0 13.233 10.766 24 24 24h462c13.234 0 24-10.767 24-24V25c0-13.233-10.766-24-24-24zM243 25c0-4.411 3.589-8 8-8h236c4.411 0 8 3.589 8 8v166H284.624c-3.303-9.311-12.195-16-22.624-16h-19V25zm72.25 470h-41.5v-19.5h41.5V495zm8-35.5H183c-2.206 0-4-1.794-4-4V443h231v12.5c0 2.206-1.794 4-4 4h-82.75zM143.5 453c-42.182 0-76.5-34.317-76.5-76.5s34.318-76.5 76.5-76.5a75.98 75.98 0 0120.987 2.96A19.878 19.878 0 00163 310.5v4.545A64.114 64.114 0 00143.5 312c-35.565 0-64.5 28.935-64.5 64.5s28.935 64.5 64.5 64.5a64.114 64.114 0 0019.5-3.045v12.49A76.005 76.005 0 01143.5 453zm19.5-87.092a7.952 7.952 0 00-3.157 1.935l-12.5 12.5a8 8 0 0011.314 11.314l4.343-4.343v33.58A48.16 48.16 0 01143.5 425c-26.743 0-48.5-21.757-48.5-48.5s21.757-48.5 48.5-48.5a48.16 48.16 0 0119.5 4.105v33.803zM410 427H179V310.5c0-2.206 1.794-4 4-4h223c2.206 0 4 1.794 4 4V427zM25 191h237c4.411 0 8 3.589 8 8v46H17v-46c0-4.411 3.589-8 8-8zm-8 296V261h253v29.5h-87c-1.47 0-2.9.17-4.28.473A91.982 91.982 0 00143.5 284C92.495 284 51 325.495 51 376.5S92.495 469 143.5 469a92.22 92.22 0 0022.621-2.817c3.55 5.59 9.781 9.317 16.879 9.317h74.75V495H25c-4.411 0-8-3.589-8-8zm470 8H331.25v-19.5H406c11.028 0 20-8.972 20-20v-145c0-11.028-8.972-20-20-20H286V207h209v280c0 4.411-3.589 8-8 8z"/></svg>