<svg xmlns="http://www.w3.org/2000/svg" shape-rendering="geometricPrecision" text-rendering="geometricPrecision" image-rendering="optimizeQuality" fill-rule="evenodd" clip-rule="evenodd" viewBox="0 0 512 438.676"><path d="M357.718 60.352C401.925-6 480.018 100.9 512 0c-16.538 11.357-28.527 18.42-43.737 22.11-38.701 9.391-105.939-26.421-110.87 38.242h-23.53a5.807 5.807 0 00-5.802 5.582l-21.907 279.199H273.28a7.67 7.67 0 00-.806.043V235.107h-.013a7.496 7.496 0 00-4.767-6.98L10.711 126.848A7.51 7.51 0 000 133.64v297.528a7.508 7.508 0 007.509 7.508H458.087a7.508 7.508 0 007.509-7.508v-59.076c0-7.414-3.033-14.16-7.917-19.044-4.882-4.882-11.623-7.915-19.042-7.915h-17.942l-27.956-279.54a5.789 5.789 0 00-5.761-5.223v-.018h-29.26zm-39.577 218.716l-3.434 44.313h96.685l-4.377-44.313h-88.874zm15.722-210.645l-3.433 52.061h60.925l-4.377-52.061h-53.115zm-7.861 109.196l-3.433 44.313h78.805l-4.377-44.313h-70.995zM273.28 352.641h165.357c10.698 0 19.45 8.767 19.45 19.451v59.076H273.28v-78.527zm46.399 33.032h27.462c1.714 0 3.273.702 4.401 1.829a6.238 6.238 0 011.829 4.403 6.212 6.212 0 01-1.829 4.401 6.214 6.214 0 01-4.401 1.829h-27.462a6.212 6.212 0 01-4.401-1.829 6.213 6.213 0 01-1.83-4.401c0-1.71.702-3.268 1.83-4.398a6.2 6.2 0 014.401-1.834zm64.548 0h27.461c1.714 0 3.275.702 4.402 1.829a6.242 6.242 0 011.829 4.403 6.216 6.216 0 01-1.829 4.401 6.213 6.213 0 01-4.402 1.829h-27.461a6.212 6.212 0 01-4.401-1.829 6.213 6.213 0 01-1.83-4.401c0-1.71.702-3.268 1.83-4.398a6.2 6.2 0 014.401-1.834zM224.501 257.345l-65.907-22.486v62.492h65.907v-40.006zm-108.118-36.888L50.476 197.97v99.381h65.907v-76.894zm83.888 144.691v66.02h64.695V235.107L7.509 133.64v297.528h67.197v-66.02c0-3.615 1.474-6.899 3.849-9.274a7.59 7.59 0 01.617-.552 13.032 13.032 0 018.657-3.297h99.319c3.616 0 6.899 1.478 9.271 3.85a13.09 13.09 0 013.852 9.273zm-59.028 66.02v-71.634h45.905c3.089 0 5.615 2.535 5.615 5.614v66.02h-51.52zm-59.028 0v-66.02c0-3.089 2.525-5.614 5.614-5.614h45.906v71.634h-51.52z"/></svg>