<svg fill="currentColor" xmlns="http://www.w3.org/2000/svg" viewBox="0 0 100 100"><path d="M96.349 27.217a4.981 4.981 0 00-4.976-4.976H65.445v-6.692a6.88 6.88 0 00-6.872-6.872H41.427a6.88 6.88 0 00-6.872 6.872v6.692H8.629a4.98 4.98 0 00-4.978 4.971l-.05 23.67a2.002 2.002 0 001.127 1.804 77.69 77.69 0 003.235 1.454v32.208a4.982 4.982 0 004.976 4.976h74.12a4.981 4.981 0 004.976-4.976v-32.69a70.393 70.393 0 003.295-1.618 1.999 1.999 0 001.067-1.773l-.048-23.05zM38.555 15.549a2.875 2.875 0 012.872-2.872h17.146c1.557 0 2.872 1.315 2.872 2.872v6.692h-22.89v-6.692zm49.481 70.799c0 .52-.456.976-.976.976H12.94a.99.99 0 01-.976-.976V55.727c8.706 3.197 18.433 5.115 29.04 5.703v2.775a3.653 3.653 0 003.649 3.649h10.695a3.653 3.653 0 003.647-3.649V61.4c10.745-.653 20.474-2.679 29.04-6.039v30.987zM45.004 63.854v-6.636h9.992v6.636h-9.992zm13.992-6.476v-.508a3.653 3.653 0 00-3.647-3.651H44.653a3.654 3.654 0 00-3.649 3.651v.551c-12.528-.718-23.759-3.329-33.399-7.799l.047-22.405a.99.99 0 01.978-.976h82.744a.99.99 0 01.976.979l.046 21.831c-9.409 4.74-20.642 7.525-33.4 8.327z"/></svg>