<svg fill="currentColor" xmlns="http://www.w3.org/2000/svg" viewBox="0 0 256 256"><g stroke-width="0" stroke-miterlimit="10"><path d="M127.857 254.307a8.428 8.428 0 01-7.259-4.145l-12.563-21.252c-25.914-43.81-50.392-85.191-58.71-101.885-5.861-12.019-8.817-24.874-8.817-38.272.003-48.164 39.185-87.346 87.349-87.346 48.166 0 87.348 39.182 87.348 87.346 0 13.386-2.953 26.242-8.778 38.204l-.177.349c-8.45 16.874-32.798 58.038-58.569 101.607l-12.566 21.252a8.428 8.428 0 01-7.258 4.142zm0-236.04c-38.868 0-70.486 31.62-70.486 70.486 0 10.813 2.38 21.184 7.075 30.823 8.014 16.076 33.464 59.102 58.074 100.707l5.337 9.026 5.31-8.98c24.625-41.625 50.083-84.669 58.131-100.82.034-.063.065-.127.098-.19 4.614-9.57 6.952-19.852 6.952-30.564-.003-38.867-31.623-70.488-70.491-70.488z"/><path d="M127.857 126.724c-22.694 0-41.156-18.462-41.156-41.155s18.462-41.153 41.156-41.153c22.69 0 41.155 18.462 41.155 41.156s-18.465 41.152-41.155 41.152zm0-65.448c-13.396 0-24.296 10.898-24.296 24.296s10.898 24.295 24.296 24.295 24.295-10.897 24.295-24.295-10.897-24.296-24.295-24.296z"/></g></svg>