<svg xmlns="http://www.w3.org/2000/svg"><path d="M20.25 22.546c3.848 2.051 7.697-4.396 7.845-9.085.149-4.689-3.256-9.818-5.477-12.162-2.22-2.344-5.774-1.026-6.514.146 0 0-1.025.825-1.726 3.016-.365 1.14-.642 2.649-.642 4.604 0 1.665.226 3.33.642 4.904 1.01 3.829 3.144 7.123 5.871 8.577m15.989 1.172c3.236.901 6.402-3.052 8.32-7.096.89-1.877 1.512-3.773 1.747-5.212.409-2.509-.04-6.267-1.746-8.416-1.384-1.742-3.592-2.426-6.84-.523 0 0-5.33 3.37-6.07 8.499-.74 5.129-.148 11.43 4.589 12.748m13.176-1.758s-2.876 2.033-4.855 4.993c-.932 1.393-1.665 2.99-1.808 4.678-.281 3.345.271 5.983 1.808 7.465.886.855 2.1 1.327 3.67 1.327 4.294 0 9.771-6.155 9.771-11.87 0-5.714-3.109-10.11-8.586-6.593M14.378 33.909c.7-1.334.82-3.27.394-6.088-.089-.582-.22-1.157-.394-1.72-1.494-4.875-5.676-7.95-5.676-7.95-8.586-3.81-9.77 6.3-7.994 10.696 1.777 4.395 5.181 8.352 9.327 7.62 2.152-.38 3.586-1.118 4.343-2.558m30.18 11.102c-2.89-5.966-7.878-11.575-10.096-13.527-2.665-2.344-7.403-3.223-9.623-.586 0 0-5.911 4.312-10.461 9.81-1.727 2.087-3.259 4.344-4.196 6.602-2.916 7.028.467 10.401 4.196 10.672a6.896 6.896 0 001.874-.122c4.294-.88 10.955-5.128 18.062-2.344 4.05 1.587 8.004 1.459 10.245-.275 1.689-1.307 2.404-3.526 1.45-6.612a26.024 26.024 0 00-1.45-3.618"/></svg>