<svg fill="currentColor" xmlns="http://www.w3.org/2000/svg" viewBox="0 0 48 48"><path d="M20.3 33.3c0-1.3-.5-2.5-1.4-3.5l-6.2-6.2c-.3-.3-.8-.4-1.2-.3-.4.1-.8.5-.9 1-.2 1-.7 3.2-.2 5l.1.2 2.2 2.2-.7.1c-1 0-1.9-.4-2.6-1.1l-2.6-2.6V22c0-1.8-1.1-3.4-2.7-4.1-.8-.3-1.7-.5-2.5-.5h-1v12.2c0 1 .4 1.9 1.1 2.6l7.2 7.2v.3H6.2v7.6h16.4v-7.6h-2.3v-6.4zM3 30.9c-.3-.3-.5-.7-.5-1.2V19.6c.2.1.5.1.7.2.9.4 1.5 1.3 1.5 2.2v7l3.2 3.2c1.1 1.1 2.6 1.7 4.1 1.7l2.5-.4c.4-.1.8-.4.9-.8.1-.4 0-.9-.3-1.2l-3-3c-.2-.8-.1-1.7 0-2.5l5.2 5.2c.6.6.9 1.3.9 2.1v6.6h-7.5v-.3c0-.6-.2-1.1-.6-1.5L3 30.9zm17.5 11v3.6H8.2v-3.6h12.3zM44 18c-1.6.7-2.7 2.3-2.7 4.1v6.1l-2.6 2.6c-.7.7-1.6 1.1-2.6 1.1l-.7-.1 2.2-2.2.1-.2c.5-1.9.1-4-.2-5.1-.1-.4-.4-.8-.9-.9-.4-.1-.9 0-1.2.3l-6.2 6.2c-.9.9-1.4 2.2-1.4 3.5V40h-2.3v7.6h16.4V40h-2.6v-.4l7.2-7.2c.7-.7 1.1-1.6 1.1-2.6V17.5h-1c-1 0-1.8.2-2.6.5zm-4.2 23.9v3.6H27.5v-3.6h12.3zm5.7-12.2c0 .5-.2.9-.5 1.2l-7.2 7.2c-.4.4-.6.9-.6 1.5v.3h-7.5v-6.6c0-.8.3-1.5.9-2.1l5.2-5.2c.1.8.2 1.7 0 2.5l-3 3c-.3.3-.4.8-.3 1.2.1.4.5.7.9.8l2.4.4h.2c1.6 0 3-.6 4.1-1.7l3.2-3.2v-6.9c0-1 .6-1.9 1.5-2.2.2-.1.5-.2.7-.2v10zM24.3 7.1c-3.6-.2-6.6 2.6-6.8 6.2-.1 1.7.5 3.4 1.7 4.7 1.2 1.3 2.8 2 4.5 2.1h.3c3.4 0 6.3-2.7 6.5-6.2.2-3.6-2.6-6.6-6.2-6.8zm-.5 11c-1.2-.1-2.3-.6-3.1-1.5-.8-.9-1.2-2-1.2-3.2.1-2.4 2.1-4.3 4.5-4.3h.2c2.5.1 4.4 2.2 4.3 4.7-.1 2.5-2.2 4.4-4.7 4.3z"/><path d="M37.1 15.7v-4.4l-2.6-.6c-.2-.9-.6-1.7-1.1-2.6l1.4-2.3-3.2-3.1-2.3 1.4c-.8-.5-1.7-.8-2.6-1L26.1.5h-4.4l-.6 2.6c-.9.2-1.7.6-2.6 1.1l-2.3-1.4-3 3.2 1.4 2.3c-.5.8-.8 1.7-1.1 2.6l-2.6.6v4.4l2.6.6c.2.9.6 1.7 1.1 2.6l-1.4 2.3 3.2 3.1 2.3-1.4c.8.5 1.7.8 2.6 1l.6 2.6h4.4l.6-2.6c.9-.2 1.7-.6 2.6-1.1l2.3 1.4 3.1-3.2-1.4-2.3c.5-.8.8-1.7 1-2.6l2.6-.6zm-4.3-1l-.1.6c-.2 1.1-.6 2.1-1.2 3.1l-.3.5 1.2 2-.9.9-2-1.2-.5.4c-.9.6-2 1.1-3 1.3l-.6.1-.5 2.3h-1.3l-.6-2.3-.6-.1c-1.1-.2-2.1-.6-3.1-1.2l-.5-.3-2 1.2-1-1 1.2-2-.4-.5c-.6-.9-1.1-2-1.3-3l-.1-.6-2.3-.5v-1.3l2.3-.6.1-.6c.2-1.1.6-2.1 1.2-3.1l.3-.5-1.2-2 .9-.9 2 1.2.5-.4c.9-.6 2-1.1 3-1.3l.6-.1.5-2.3h1.3l.6 2.3.6.1c1.1.2 2.1.6 3.1 1.2l.5.3 2-1.2.9.9-1.2 2 .4.5c.6.9 1.1 2 1.3 3l.1.6 2.3.5V14l-2.2.7z"/></svg>