<svg xmlns="http://www.w3.org/2000/svg" width="256" height="256"><g stroke-width="0" stroke-miterlimit="10" fill="#000"><path d="M92.45 60.97H21.59c-7.912 0-14.325 6.415-14.325 14.326V239.98c0 7.91 6.416 14.326 14.326 14.326h70.86c7.913 0 14.325-6.416 14.325-14.326V75.296c0-7.913-6.415-14.326-14.325-14.326zM69.713 71.496c-1.065 0-1.933-.868-1.933-1.933s.868-1.933 1.933-1.933 1.933.868 1.933 1.933-.865 1.933-1.933 1.933zm-26.878-.18c-.969 0-1.753-.783-1.753-1.753 0-.97.784-1.753 1.753-1.753H63.17a1.752 1.752 0 110 3.507H42.834zm-4.498 4.963h37.37c3.695 0 6.87-2.858 8.197-6.879h8.548a5.901 5.901 0 015.895 5.896V239.98a5.901 5.901 0 01-5.895 5.896H21.59a5.901 5.901 0 01-5.896-5.896V75.296a5.901 5.901 0 015.896-5.896h8.548c1.326 4.021 4.501 6.879 8.197 6.879z"/><path d="M234.288 1.407H75.914c-7.787 0-14.16 6.373-14.16 14.16V49.73h8.43V15.566c0-3.105 2.622-5.73 5.73-5.73h158.374c3.105 0 5.73 2.625 5.73 5.73v203.408H118.016v21.004a25.436 25.436 0 01-4.403 14.329h120.675c7.787 0 14.16-6.373 14.16-14.16V15.567c0-7.787-6.373-14.16-14.16-14.16zM155.1 244.862a7.77 7.77 0 117.77-7.77 7.766 7.766 0 01-7.77 7.77z"/></g></svg>