<svg xmlns="http://www.w3.org/2000/svg" width="156" height="156" viewBox="-5 0 256 256"><path d="M32.4 21.197H7.183a5.098 5.098 0 00-5.098 5.098v58.607A5.099 5.099 0 007.183 90H32.4a5.098 5.098 0 005.098-5.098V26.295a5.098 5.098 0 00-5.098-5.098zm-8.092 3.746a.69.69 0 010-1.376.69.69 0 010 1.376zm-9.565-.064a.624.624 0 110-1.248h7.237a.624.624 0 110 1.248h-7.237zm-1.601 1.766h13.299c1.315 0 2.445-1.017 2.917-2.448H32.4a2.1 2.1 0 012.098 2.098v58.607A2.1 2.1 0 0132.4 87H7.183a2.1 2.1 0 01-2.098-2.098V26.295a2.1 2.1 0 012.098-2.098h3.042c.472 1.431 1.602 2.448 2.917 2.448z"/><path d="M82.876 0H26.515c-2.771 0-5.039 2.268-5.039 5.039v12.158h3V5.039c0-1.105.933-2.039 2.039-2.039h56.361c1.105 0 2.039.934 2.039 2.039v72.387H41.498v7.475A9.052 9.052 0 0139.931 90h42.945c2.771 0 5.039-2.268 5.039-5.039V5.039C87.915 2.268 85.647 0 82.876 0zM54.695 86.639a2.765 2.765 0 110-5.53 2.765 2.765 0 010 5.53z"/></svg>