<svg xmlns="http://www.w3.org/2000/svg" viewBox="0 0 256 256"><switch><g><circle cx="128" cy="128" r="128"/><path opacity=".15" fill="#D1D1D1" d="M141.9 120.2l46.4-53.9h-11L137 113.1l-32.2-46.8H67.7l48.6 70.8-48.6 56.5h11l42.5-49.4 34 49.4h37.1l-50.4-73.4zm-15.1 17.6l-4.9-7.1-39.3-56.1h16.9l31.7 45.3 4.9 7.1 41.1 58.8h-16.9l-33.5-48z"/><path fill="#FFF" d="M139.9 118.2l46.4-53.9h-11L135 111.1l-32.2-46.8H65.7l48.6 70.8-48.6 56.5h11l42.5-49.4 34 49.4h37.1l-50.4-73.4zm-15.1 17.6l-4.9-7.1-39.3-56.1h16.9l31.7 45.3 4.9 7.1 41.1 58.8h-16.9l-33.5-48z"/></g></switch></svg>