<svg fill="currentColor" xmlns="http://www.w3.org/2000/svg" viewBox="0 0 511 511">
  <path
    d="M215.5 167a7.5 7.5 0 007.5-7.5v-8a7.5 7.5 0 00-15 0v8a7.5 7.5 0 007.5 7.5zm80 0a7.5 7.5 0 007.5-7.5v-8a7.5 7.5 0 00-15 0v8a7.5 7.5 0 007.5 7.5z" />
  <path
    d="M255.5 247c40.629 0 76.855-26.059 90.109-64.07C362 181.842 375 168.161 375 151.5s-13-30.342-29.391-31.43c-13.228-37.938-49.341-63.964-89.874-64.065a25.856 25.856 0 00-5.395.153c-38.508 2.1-72.26 27.519-84.949 63.912C149 121.158 136 134.839 136 151.5s13 30.342 29.391 31.43C178.645 220.941 214.871 247 255.5 247zM151 151.5c0-9.098 7.402-16.5 16.5-16.5.443 0 1.07.09 1.795.194l.482.068a7.505 7.505 0 008.26-5.413c7.229-25.909 26.864-45.972 51.336-54.447-.864 4.583-.202 9.271 2.042 13.455C238.016 101.163 254.351 103 263.5 103a7.5 7.5 0 000-15c-9.72 0-16.772-2.33-18.866-6.232-1.454-2.71.009-5.441.705-6.49.611-.92 2.621-3.475 6.354-4.179A80.228 80.228 0 01255.5 71c35.941 0 67.795 24.2 77.463 58.85a7.5 7.5 0 008.26 5.413l.482-.068c.726-.104 1.353-.194 1.795-.194 9.098 0 16.5 7.402 16.5 16.5s-7.402 16.5-16.5 16.5c-.443 0-1.07-.09-1.795-.194l-.482-.068a7.498 7.498 0 00-8.26 5.413C323.295 207.8 291.441 232 255.5 232s-67.795-24.2-77.463-58.85a7.501 7.501 0 00-8.26-5.413l-.482.068c-.725.105-1.352.195-1.795.195-9.098 0-16.5-7.402-16.5-16.5z" />
  <path
    d="M398.176 410.449c5.706-15.93 8.824-33.081 8.824-50.949v-208C407 67.962 339.038 0 255.5 0S104 67.962 104 151.5v208c0 83.538 67.963 151.5 151.5 151.5 49.94 0 94.307-24.294 121.922-61.678.035-.036.073-.067.108-.104a7.5 7.5 0 001.127-1.588 151.266 151.266 0 0019.071-35.924c.186-.402.335-.821.448-1.257zM392 232.944a7.483 7.483 0 00-.575 2.88c0 37.107-20.11 68.475-63.19 98.51-14.594-7.659-30.629-15.229-47.263-23.081-2.822-1.333-5.659-2.672-8.504-4.019 48.232-23.96 96.285-52.594 119.533-93.494v19.204zm0 56.988V359.5c0 7.574-.63 15.001-1.822 22.243-9.411-14.614-26.265-27.279-47.35-39.411 22.317-16.467 38.645-33.853 49.172-52.4zM119 151.5C119 76.233 180.234 15 255.5 15 330.767 15 392 76.233 392 151.5v5.12a7.48 7.48 0 00-.575 2.88c0 30.452-13.901 57.422-42.499 82.453-25.808 22.589-60.138 40.771-93.718 57.031C186.849 265.876 119 226.357 119 159.5v-8zm41.946 109.466c32.549 25.58 73.764 45.036 113.622 63.851 55.197 26.056 107.371 50.688 108.822 82.391a136.164 136.164 0 01-12.844 25.682c-21.942-17.708-54.888-33.263-89.575-49.638C205.05 347.414 119 306.793 119 231.5v-16.707c9.442 16.257 23.374 31.578 41.946 46.173zM255.5 496C180.234 496 119 434.767 119 359.5v-1.77c9.442 16.256 23.374 31.577 41.946 46.173 32.549 25.58 73.764 45.035 113.622 63.851 12.311 5.812 24.12 11.391 35.255 16.958C293.166 491.967 274.797 496 255.5 496zm70.7-19.773c-14.068-7.318-29.231-14.485-45.229-22.037C205.05 418.351 119 377.729 119 302.437v-15.643c9.442 16.256 23.374 31.578 41.946 46.173 32.549 25.58 73.764 45.036 113.622 63.851 34.243 16.164 66.732 31.507 87.188 48.262a137.57 137.57 0 01-35.556 31.147z" />
  <path
    d="M255.5 207c11.904 0 22.864-3.876 29.319-10.369a7.5 7.5 0 00-10.637-10.575c-2.726 2.742-9.254 5.944-18.681 5.944s-15.955-3.202-18.681-5.944a7.498 7.498 0 00-10.606-.031 7.498 7.498 0 00-.031 10.606C232.636 203.124 243.596 207 255.5 207z" />
</svg>