<?xml version="1.0" standalone="no"?>
<!DOCTYPE svg PUBLIC "-//W3C//DTD SVG 20010904//EN"
 "http://www.w3.org/TR/2001/REC-SVG-20010904/DTD/svg10.dtd">
<svg version="1.0" xmlns="http://www.w3.org/2000/svg"
 width="468.000000pt" height="468.000000pt" viewBox="0 0 468.000000 468.000000"
 preserveAspectRatio="xMidYMid meet">
<metadata>
Created by potrace 1.14, written by Peter Selinger 2001-2017
</metadata>
<g transform="translate(0.000000,468.000000) scale(0.100000,-0.100000)"
fill="#000000" stroke="none">
<path d="M1418 4444 c-4 -5 -21 -11 -39 -12 -18 -1 -38 -7 -45 -13 -7 -6 -18
-8 -24 -4 -5 3 -10 1 -10 -5 0 -6 -4 -9 -9 -5 -5 3 -13 0 -16 -6 -4 -5 -13 -8
-20 -5 -8 3 -15 2 -17 -2 -5 -11 -97 -72 -109 -72 -6 0 -7 -5 -4 -10 4 -6 -9
-26 -29 -44 -19 -19 -32 -36 -29 -40 4 -3 1 -6 -6 -6 -7 0 -10 -4 -7 -9 3 -5
-1 -11 -9 -15 -8 -3 -15 -15 -15 -26 0 -12 -4 -18 -10 -15 -5 3 -12 -6 -16
-20 -3 -14 -9 -25 -13 -25 -9 0 -35 -51 -33 -62 1 -5 -2 -8 -8 -8 -5 0 -10 -7
-10 -15 0 -8 -4 -15 -10 -15 -5 0 -10 -7 -10 -16 0 -9 -5 -12 -12 -8 -8 5 -7
0 2 -11 9 -11 10 -16 2 -11 -8 5 -15 -2 -22 -18 -5 -14 -14 -26 -20 -26 -6 0
-8 -4 -5 -10 6 -10 -42 -90 -62 -103 -7 -4 -10 -14 -7 -22 4 -8 1 -15 -5 -15
-6 0 -11 -7 -11 -15 0 -8 -5 -15 -11 -15 -5 0 -7 -4 -4 -10 3 -5 1 -10 -5 -10
-6 0 -8 -4 -5 -10 3 -5 1 -10 -4 -10 -6 0 -11 -6 -11 -14 0 -7 -7 -19 -15 -26
-8 -7 -15 -21 -15 -32 0 -10 -4 -16 -10 -13 -9 6 -14 -8 -11 -27 0 -5 -4 -8
-9 -8 -6 0 -10 -7 -10 -15 0 -8 -5 -15 -11 -15 -5 0 -7 -4 -4 -10 3 -5 2 -10
-4 -10 -6 0 -13 -11 -17 -25 -3 -14 -10 -25 -16 -25 -5 0 -6 -4 -3 -10 3 -5 1
-10 -6 -10 -7 0 -10 -3 -6 -6 3 -3 -3 -15 -14 -27 -10 -11 -19 -27 -19 -34 0
-7 -5 -13 -11 -13 -5 0 -7 -4 -4 -10 3 -5 1 -10 -4 -10 -6 0 -11 -6 -11 -14 0
-7 -7 -19 -15 -26 -8 -7 -12 -16 -9 -21 3 -5 0 -9 -5 -9 -6 0 -10 -6 -8 -12 1
-7 -4 -12 -11 -10 -8 1 -10 -2 -7 -8 4 -6 0 -19 -8 -28 -8 -9 -22 -34 -32 -54
-10 -23 -22 -35 -29 -31 -6 3 -8 3 -4 -2 4 -4 2 -17 -4 -29 -7 -11 -12 -25
-13 -29 0 -5 -9 -15 -19 -23 -11 -8 -16 -14 -12 -14 5 0 3 -7 -4 -15 -7 -8 -9
-15 -4 -15 5 0 1 -5 -9 -11 -9 -6 -15 -14 -12 -20 4 -5 1 -9 -5 -9 -6 0 -8 -4
-5 -10 3 -5 3 -10 -2 -10 -9 0 -33 -48 -33 -65 0 -6 -9 -21 -21 -33 -11 -12
-17 -27 -14 -32 3 -6 1 -10 -4 -10 -6 0 -11 -7 -11 -15 0 -8 -5 -15 -11 -15
-5 0 -7 -4 -4 -10 3 -5 2 -10 -3 -10 -5 0 -12 -8 -16 -17 -3 -10 -10 -25 -15
-33 -13 -22 -57 -121 -67 -150 -9 -30 -10 -36 -12 -73 -1 -16 -5 -26 -9 -24
-10 6 -10 -80 0 -89 4 -4 2 -13 -4 -21 -8 -9 -8 -13 0 -13 6 0 10 -10 10 -22
-1 -34 9 -72 21 -76 6 -2 8 -8 5 -12 -3 -5 3 -24 14 -43 11 -19 17 -38 14 -41
-4 -3 -1 -6 6 -6 7 0 9 -4 6 -10 -3 -5 -1 -10 4 -10 6 0 11 -7 11 -15 0 -7 6
-18 14 -22 14 -8 16 -12 16 -32 0 -5 6 -16 13 -23 7 -7 28 -44 47 -83 19 -38
40 -73 45 -77 6 -4 6 -8 1 -8 -5 0 -3 -6 3 -13 6 -8 8 -17 4 -20 -3 -4 -2 -7
4 -7 5 0 20 -23 33 -50 13 -27 27 -50 32 -50 5 0 6 -4 3 -10 -3 -5 -1 -10 4
-10 6 0 11 -7 11 -15 0 -8 9 -24 20 -35 11 -11 17 -20 14 -20 -7 0 39 -84 49
-88 4 -2 5 -8 1 -13 -3 -5 0 -9 5 -9 6 0 10 -5 9 -11 -2 -6 5 -13 16 -14 15
-3 17 2 14 26 -3 17 1 34 9 40 7 6 13 19 13 29 0 9 11 39 25 66 14 27 25 55
25 62 0 7 5 10 10 7 6 -4 9 -3 8 2 -4 12 35 83 45 83 4 0 5 5 2 10 -3 6 -1 10
6 10 7 0 9 3 6 6 -3 4 8 26 24 50 20 26 28 47 23 56 -4 7 -4 10 1 6 10 -9 35
10 35 26 0 6 -5 4 -10 -4 -6 -9 -10 -10 -10 -3 0 7 6 16 13 20 7 4 22 27 34
50 11 23 23 40 27 36 5 -6 8 5 5 23 0 4 3 10 8 13 10 7 38 55 55 94 7 15 16
27 21 27 4 0 5 5 2 10 -3 6 -1 10 4 10 6 0 11 7 11 15 0 8 5 15 11 15 6 0 9 7
5 15 -3 9 3 19 14 25 11 6 20 17 20 25 0 7 5 15 10 17 6 2 12 13 13 25 0 12 5
19 10 16 4 -3 11 4 14 16 3 12 10 21 15 21 5 0 6 5 3 10 -3 6 -1 10 4 10 6 0
11 6 11 14 0 7 7 19 15 26 8 7 12 16 10 21 -3 4 3 12 12 18 10 6 14 11 10 11
-5 0 1 13 13 30 12 17 19 30 15 30 -6 0 4 13 33 46 8 8 11 21 8 30 -3 8 -2 13
2 11 9 -6 26 13 30 33 2 8 8 17 13 18 5 2 7 8 3 13 -3 5 0 9 5 9 6 0 11 7 11
15 0 9 7 18 15 21 8 4 13 10 10 14 -3 4 2 13 10 20 8 7 15 19 15 27 0 13 31
62 58 91 7 8 10 17 7 22 -3 5 5 16 17 24 12 9 19 16 14 16 -5 0 -3 6 3 13 6 8
8 17 4 20 -3 4 -1 7 6 7 11 0 28 33 29 54 0 5 7 13 16 18 9 5 14 13 11 18 -3
4 2 11 11 14 8 3 12 10 9 16 -3 5 -1 10 5 10 6 0 8 4 5 10 -3 5 3 15 14 21 10
7 17 19 14 26 -3 7 1 13 8 13 7 0 10 3 6 6 -3 4 -1 12 6 20 35 39 37 43 37 70
0 8 4 13 9 10 9 -6 31 36 31 60 0 8 4 13 9 10 5 -3 12 6 15 19 4 16 11 23 18
19 7 -4 8 -3 4 5 -4 6 0 18 8 27 9 9 14 19 11 24 -3 5 -2 10 3 12 12 5 75 109
75 124 0 7 3 11 7 9 4 -2 17 18 31 45 13 27 27 50 32 50 4 0 7 7 7 15 0 8 5
15 11 15 5 0 7 5 4 10 -3 6 -3 10 2 10 4 0 17 18 27 40 11 22 23 40 28 40 5 0
7 4 3 9 -3 5 1 16 9 24 8 8 12 17 9 21 -3 3 2 8 11 12 9 3 13 10 10 15 -3 5
-1 9 4 9 6 0 13 11 16 25 4 14 11 23 17 20 5 -4 9 -3 8 2 -3 13 13 63 20 63 3
0 15 17 26 38 10 20 26 46 35 56 13 17 13 18 0 12 -9 -4 -8 -2 3 7 9 8 17 17
17 20 0 4 7 15 15 24 8 10 28 35 45 57 16 21 30 36 30 32 0 -6 21 10 65 50 21
19 21 22 5 32 -13 8 -21 7 -30 -1 -10 -9 -11 -9 -5 1 8 16 -26 13 -37 -3 -5
-7 -8 -6 -8 0 0 12 -119 13 -137 2 -6 -4 -14 -3 -18 3 -4 7 -12 7 -25 0 -10
-6 -21 -6 -24 -2 -6 11 -66 9 -84 -2 -6 -4 -12 -3 -12 1 0 11 -40 11 -56 1 -6
-4 -14 -4 -18 -1 -11 12 -80 10 -95 -1 -11 -8 -13 -8 -7 2 9 15 -6 16 -22 0
-7 -7 -12 -8 -12 -2 0 12 -209 13 -227 1 -6 -4 -13 -2 -15 5 -3 7 -7 8 -10 2z"/>
<path d="M2570 4439 c0 -7 -3 -10 -6 -6 -4 3 -21 0 -39 -8 -19 -7 -36 -11 -39
-7 -3 3 -6 0 -6 -7 0 -8 -7 -11 -15 -7 -8 3 -15 1 -15 -4 0 -6 -7 -10 -15 -10
-8 0 -15 -4 -15 -10 0 -5 -6 -10 -14 -10 -27 0 -136 -116 -170 -182 -11 -20
-23 -35 -26 -33 -3 2 -6 -5 -7 -15 -1 -11 -11 -29 -22 -41 -11 -12 -18 -26
-15 -31 3 -4 0 -8 -5 -8 -6 0 -11 -5 -11 -11 0 -6 -9 -22 -20 -36 -11 -14 -18
-29 -15 -33 3 -4 -2 -10 -10 -14 -8 -3 -15 -12 -15 -20 0 -8 -4 -16 -9 -18 -5
-1 -11 -9 -13 -17 -2 -8 -11 -23 -21 -33 -10 -10 -15 -23 -12 -28 4 -6 2 -10
-4 -10 -5 0 -20 -20 -32 -45 -12 -24 -25 -42 -29 -40 -3 2 -7 -6 -7 -17 -1
-12 -6 -24 -11 -27 -5 -3 -26 -36 -46 -73 -21 -37 -42 -70 -47 -74 -5 -3 -7
-10 -4 -15 4 -5 1 -9 -5 -9 -6 0 -8 -4 -5 -10 3 -5 1 -10 -4 -10 -6 0 -11 -6
-11 -14 0 -7 -7 -19 -15 -26 -8 -7 -12 -16 -9 -21 3 -5 0 -9 -5 -9 -6 0 -11
-5 -11 -10 0 -6 -9 -21 -20 -33 -11 -12 -18 -27 -16 -33 3 -7 -2 -15 -10 -18
-9 -3 -12 -10 -9 -16 3 -5 2 -10 -4 -10 -6 0 -13 -11 -17 -25 -3 -14 -11 -22
-17 -18 -5 3 -7 2 -4 -4 3 -5 -3 -22 -14 -39 -11 -16 -27 -44 -35 -61 -9 -18
-21 -33 -26 -33 -5 0 -7 -4 -3 -10 3 -5 -3 -18 -15 -30 -11 -11 -20 -21 -20
-22 -3 -22 -14 -48 -22 -48 -5 0 -6 -4 -3 -10 3 -5 2 -10 -2 -10 -5 0 -20 -24
-33 -54 -13 -30 -27 -53 -32 -50 -4 3 -8 -1 -8 -8 0 -7 -11 -30 -25 -50 -14
-20 -25 -44 -25 -52 0 -9 -4 -16 -9 -16 -5 0 -15 -16 -22 -34 -7 -19 -16 -33
-21 -30 -4 3 -8 -1 -8 -8 0 -21 -37 -88 -44 -81 -5 6 -8 -5 -5 -23 0 -4 -4
-10 -9 -13 -6 -3 -12 -13 -14 -21 -3 -14 -8 -21 -38 -57 -8 -10 -13 -18 -12
-18 9 0 -22 -55 -31 -55 -6 0 -8 -3 -4 -6 3 -3 -3 -16 -14 -27 -11 -12 -17
-27 -15 -34 3 -7 1 -13 -4 -13 -4 0 -22 -24 -37 -52 -49 -89 -75 -132 -94
-159 -10 -14 -16 -29 -12 -33 3 -3 1 -6 -5 -6 -7 0 -12 -7 -12 -15 0 -8 -4
-15 -9 -15 -5 0 -14 -13 -20 -30 -5 -16 -15 -30 -21 -30 -6 0 -9 -4 -5 -9 3
-5 -2 -16 -10 -24 -8 -9 -15 -20 -15 -25 0 -5 -7 -15 -15 -22 -9 -7 -13 -15
-11 -18 3 -2 -6 -20 -21 -38 -14 -19 -22 -34 -17 -34 4 0 -3 -12 -17 -26 -13
-14 -22 -27 -19 -29 3 -3 -3 -13 -12 -24 -9 -11 -14 -22 -11 -25 4 -3 1 -6 -5
-6 -7 0 -12 -7 -12 -15 0 -8 -5 -15 -11 -15 -5 0 -7 -5 -4 -10 3 -6 -1 -13 -9
-16 -9 -3 -14 -10 -11 -14 3 -5 -1 -15 -9 -23 -8 -8 -12 -17 -9 -21 4 -3 0 -6
-7 -6 -7 0 -11 -3 -7 -6 3 -4 -1 -13 -9 -21 -8 -8 -12 -19 -9 -24 4 -5 1 -9
-4 -9 -6 0 -10 -3 -9 -7 1 -7 -3 -20 -20 -63 -3 -8 -7 -31 -8 -50 -1 -19 -3
-37 -4 -40 -6 -14 3 -125 10 -125 1 0 4 -13 6 -30 3 -16 9 -34 15 -39 5 -6 9
-18 9 -28 0 -10 5 -18 10 -18 6 0 10 -7 10 -15 0 -8 5 -15 11 -15 5 0 7 -5 4
-11 -4 -5 0 -18 8 -27 7 -9 23 -38 33 -64 10 -27 25 -48 33 -48 8 0 11 -3 8
-7 -4 -3 1 -15 10 -26 13 -15 14 -19 3 -13 -8 4 -7 1 3 -7 10 -8 20 -25 22
-37 2 -12 14 -31 26 -41 12 -10 19 -19 14 -19 -4 0 -2 -6 4 -13 6 -8 7 -18 3
-22 -4 -5 -2 -5 5 -1 7 4 16 -7 24 -29 7 -19 17 -35 21 -35 4 0 8 -6 8 -14 0
-7 7 -19 15 -26 9 -7 14 -19 11 -26 -3 -7 2 -15 10 -18 9 -3 12 -10 9 -16 -3
-5 -2 -10 3 -10 5 0 12 -8 15 -17 8 -26 40 -76 59 -94 10 -9 15 -19 12 -22 -4
-3 3 -5 15 -4 13 1 21 7 20 17 -1 8 1 22 4 30 4 8 8 24 10 35 1 11 6 26 10 33
5 6 5 12 0 12 -4 0 -3 4 3 8 17 11 53 89 46 98 -4 4 -2 4 5 0 8 -4 15 2 19 19
3 14 9 25 13 25 3 0 17 21 31 48 14 26 30 53 37 60 7 7 13 20 13 28 0 8 4 14
8 14 5 0 14 16 22 35 7 19 18 31 23 28 6 -3 8 -2 4 3 -7 12 38 86 47 77 4 -4
4 0 1 9 -3 8 0 22 7 29 12 13 28 40 62 104 6 11 13 22 16 25 3 3 12 14 20 24
13 18 13 19 0 12 -9 -4 -8 -1 3 7 9 8 17 19 17 26 0 6 4 11 9 11 8 0 24 37 22
53 -1 4 3 7 8 7 5 0 16 12 23 28 24 47 43 77 52 83 5 4 5 13 1 20 -5 8 -4 11
0 7 10 -10 56 63 48 76 -4 5 -2 6 4 3 5 -3 20 14 32 38 12 25 27 45 32 45 6 0
8 4 5 9 -3 4 3 19 15 32 11 12 17 29 15 36 -3 7 0 12 7 10 7 -1 11 4 9 11 -1
6 2 12 8 12 5 0 10 6 10 14 0 8 8 17 17 20 14 6 15 9 4 15 -10 7 -9 10 3 14 9
4 16 13 16 22 0 8 5 15 12 15 6 0 8 3 5 7 -4 3 4 21 18 39 14 18 29 44 35 58
5 14 15 26 21 26 7 0 9 3 6 7 -4 3 0 15 10 25 9 10 13 18 9 18 -4 0 2 9 12 20
10 11 25 33 33 48 7 15 23 41 34 57 11 17 21 37 23 45 2 8 7 17 10 20 17 13
62 92 57 100 -3 5 1 12 9 17 16 9 92 134 88 146 -1 4 2 7 8 7 5 0 10 6 10 14
0 8 7 17 16 20 9 4 14 9 12 12 -3 3 18 44 46 92 29 48 55 95 59 105 3 9 11 17
16 17 6 0 8 7 5 15 -4 8 -2 15 3 15 6 0 18 18 29 40 10 22 23 40 27 40 5 0 6
4 3 9 -3 5 1 14 9 21 8 7 15 18 15 25 0 7 9 24 21 39 11 14 17 26 13 26 -4 0
0 8 9 18 10 10 14 22 10 25 -3 4 -1 7 5 7 7 0 12 6 12 13 0 8 9 24 20 37 11
12 17 27 14 31 -3 5 0 9 6 9 6 0 9 4 5 9 -3 6 2 14 11 19 9 5 15 11 14 13 -4
8 34 79 42 79 5 0 6 5 3 10 -3 6 -1 10 4 10 6 0 10 3 9 8 -2 4 6 23 18 42 11
19 20 37 20 40 -1 3 9 18 22 34 12 16 22 35 22 42 0 8 5 14 11 14 5 0 8 4 5 9
-4 5 -3 11 2 13 10 4 72 105 72 117 0 5 7 14 15 21 8 7 12 16 10 21 -3 4 3 13
14 19 12 6 18 16 15 25 -4 8 -1 15 5 15 6 0 10 6 9 13 -2 6 3 11 10 9 8 -1 11
2 6 9 -3 6 -1 15 5 19 7 4 13 16 14 28 0 11 4 19 7 17 8 -5 29 22 22 29 -3 4
-2 10 4 14 12 8 58 83 76 125 7 15 16 27 20 27 4 0 8 7 8 15 0 8 3 15 8 15 4
0 13 9 20 21 8 12 9 18 3 15 -6 -4 -3 7 7 23 9 17 21 31 25 31 5 0 5 5 2 10
-3 6 1 13 9 16 9 3 14 10 11 14 -3 5 -1 11 5 15 6 4 8 11 5 16 -4 5 -1 9 4 9
6 0 11 6 11 14 0 8 7 17 16 20 8 3 13 10 9 15 -3 6 4 15 15 21 11 6 19 14 17
18 -3 12 81 89 136 123 14 10 -2 31 -19 25 -8 -3 -14 0 -14 6 0 7 -5 6 -15 -2
-12 -10 -15 -10 -15 1 0 9 -3 10 -8 4 -8 -12 -32 -13 -49 -2 -8 5 -13 3 -13
-3 0 -6 -5 -8 -12 -3 -17 10 -39 10 -60 0 -11 -4 -18 -4 -18 2 0 7 -9 7 -25 1
-14 -5 -25 -6 -25 -2 0 4 -9 8 -20 8 -11 0 -20 -4 -20 -8 0 -5 -10 -4 -21 3
-16 8 -20 8 -14 -1 6 -9 2 -9 -14 -1 -16 9 -21 9 -21 -1 0 -9 -3 -9 -12 0 -7
7 -17 8 -29 2 -11 -6 -20 -6 -23 -1 -7 10 -25 9 -43 -2 -7 -5 -13 -4 -13 0 0
11 -325 11 -335 1 -4 -4 -16 -3 -26 3 -14 7 -19 6 -19 -2z"/>
<path d="M3559 4305 c-4 -3 -16 -8 -28 -10 -24 -4 -98 -73 -93 -87 1 -4 -2 -8
-8 -8 -5 0 -10 -7 -10 -15 0 -8 -4 -15 -9 -15 -5 0 -14 -13 -20 -30 -5 -16
-14 -30 -20 -30 -5 0 -13 -10 -17 -22 -4 -13 -17 -39 -29 -58 -53 -82 -139
-236 -137 -242 1 -5 -3 -8 -9 -8 -5 0 -7 -4 -4 -10 3 -5 1 -10 -4 -10 -6 0
-11 -6 -11 -14 0 -8 -3 -16 -7 -18 -10 -4 -52 -76 -60 -100 -3 -10 -9 -18 -14
-18 -5 0 -9 -7 -9 -15 0 -8 -4 -15 -10 -15 -5 0 -9 -3 -9 -7 1 -5 0 -10 -1
-13 -13 -34 17 -130 41 -130 7 0 9 -3 6 -6 -4 -4 1 -19 11 -33 10 -14 24 -39
32 -56 8 -16 17 -32 20 -35 3 -3 12 -18 20 -35 8 -16 17 -32 20 -35 4 -4 24
-39 54 -95 6 -11 16 -23 21 -27 7 -5 7 -8 0 -8 -5 0 -5 -4 2 -8 6 -4 13 -14
15 -22 3 -15 13 -29 36 -55 7 -8 10 -15 6 -15 -4 0 0 -8 9 -18 10 -10 14 -22
10 -25 -3 -4 -1 -7 6 -7 7 0 9 -4 6 -10 -3 -5 -2 -10 4 -10 6 0 13 -11 17 -25
3 -14 9 -25 13 -25 4 0 13 -16 20 -35 7 -19 17 -35 22 -35 6 0 7 -4 4 -10 -3
-5 -1 -10 6 -10 7 0 10 -3 6 -6 -3 -3 3 -15 14 -27 10 -11 19 -28 19 -36 0 -9
9 -27 20 -41 11 -14 20 -31 20 -37 0 -7 5 -13 11 -13 5 0 7 -4 4 -10 -3 -5 -2
-10 3 -10 8 0 32 -45 35 -67 1 -4 16 -23 34 -40 l32 -33 248 0 c136 0 304 0
373 0 133 0 193 6 198 20 2 5 10 6 18 3 8 -3 14 0 14 6 0 6 6 11 14 11 8 0 18
9 21 20 4 11 10 18 14 16 4 -3 6 14 4 37 -2 23 -8 44 -13 45 -6 2 -8 8 -4 13
3 5 0 9 -5 9 -6 0 -10 3 -9 8 4 14 -13 52 -23 52 -6 0 -7 5 -4 10 3 6 1 10 -5
10 -6 0 -9 4 -5 9 3 5 -2 16 -10 24 -8 9 -12 23 -9 32 4 10 2 15 -7 13 -8 -2
-13 3 -11 10 1 6 -3 12 -9 12 -5 0 -8 4 -5 9 3 5 -1 11 -9 15 -8 3 -15 12 -15
21 0 9 -10 29 -21 44 -12 16 -18 34 -14 40 3 6 3 10 -2 9 -4 -2 -9 1 -10 6 -1
5 -6 12 -11 15 -6 3 -12 13 -14 21 -2 8 -10 21 -18 28 -11 10 -11 12 -1 6 9
-5 12 -3 7 4 -4 7 -14 12 -22 12 -8 0 -12 4 -9 10 8 12 -26 71 -36 64 -5 -2
-6 5 -4 16 2 13 -1 20 -11 20 -8 0 -12 5 -9 10 3 6 1 10 -5 10 -7 0 -10 7 -6
15 3 8 1 15 -4 15 -6 0 -10 7 -10 15 0 8 -4 15 -10 15 -5 0 -10 7 -10 15 0 8
-5 15 -11 15 -6 0 -9 6 -6 14 3 8 -1 17 -9 20 -8 3 -14 12 -14 21 0 8 -4 15
-10 15 -5 0 -10 9 -10 20 0 11 -4 20 -9 20 -5 0 -16 18 -25 40 -9 22 -20 40
-26 40 -5 0 -7 7 -4 15 4 8 1 15 -5 15 -6 0 -11 7 -11 15 0 8 -5 15 -11 15 -5
0 -7 5 -4 10 3 6 2 10 -2 10 -9 0 -20 19 -48 82 -10 23 -22 35 -29 31 -6 -3
-8 -3 -4 2 4 4 3 14 -3 22 -6 7 -8 13 -5 13 4 0 0 7 -8 16 -9 8 -14 20 -11 25
4 5 -1 9 -9 9 -10 0 -13 6 -10 15 4 8 1 15 -5 15 -6 0 -11 7 -11 15 0 8 -5 15
-12 15 -6 0 -9 3 -5 6 3 4 -1 13 -9 21 -8 8 -12 18 -9 23 3 5 -5 16 -17 24
-15 11 -18 16 -8 16 12 1 11 3 -2 11 -10 5 -18 17 -18 24 0 8 -4 15 -10 15 -5
0 -10 9 -10 20 0 11 -3 20 -8 20 -4 0 -13 14 -20 30 -8 17 -18 28 -23 25 -5
-4 -6 0 -3 8 3 8 -2 22 -11 31 -9 9 -14 16 -10 16 4 0 -1 7 -9 16 -9 8 -14 20
-10 25 3 5 -1 12 -10 15 -8 3 -17 12 -20 20 -4 10 -2 13 7 7 6 -4 -3 12 -21
35 -19 23 -31 42 -27 42 3 0 0 7 -9 15 -8 8 -21 15 -29 15 -9 0 -17 5 -19 11
-2 5 -6 8 -9 4z"/>
<path d="M2922 3338 c-7 -7 -12 -16 -12 -21 0 -5 -7 -15 -15 -24 -8 -8 -13
-19 -10 -24 4 -5 1 -9 -4 -9 -6 0 -11 -4 -11 -9 0 -6 -13 -29 -28 -53 -15 -24
-37 -60 -47 -80 -11 -21 -23 -38 -28 -38 -4 0 -6 -4 -2 -9 3 -5 1 -12 -5 -16
-6 -4 -8 -11 -5 -16 4 -5 1 -9 -5 -9 -6 0 -29 -39 -52 -87 -22 -49 -44 -90
-48 -93 -3 -3 -13 -20 -21 -37 -8 -18 -17 -33 -21 -33 -5 0 -8 -7 -8 -15 0 -8
-3 -15 -7 -15 -5 0 -19 -25 -33 -55 -14 -30 -28 -55 -32 -55 -5 0 -8 -6 -8
-13 0 -8 -9 -24 -20 -37 -11 -13 -20 -29 -20 -37 0 -7 -4 -13 -9 -13 -11 0
-22 -53 -13 -62 4 -4 225 -8 491 -9 403 -2 484 0 491 12 6 8 4 16 -3 21 -7 4
-8 8 -3 8 5 0 3 6 -3 13 -6 8 -8 17 -4 20 3 4 1 7 -5 7 -7 0 -12 7 -12 15 0 8
-5 15 -11 15 -5 0 -8 3 -5 8 2 4 -9 27 -25 50 -16 24 -27 47 -24 52 3 4 -2 11
-11 14 -8 3 -13 10 -10 15 3 5 -1 12 -10 15 -8 3 -12 10 -9 16 3 5 1 10 -4 10
-6 0 -11 9 -11 20 0 11 -4 20 -10 20 -5 0 -10 5 -10 11 0 7 -8 18 -17 25 -14
10 -15 13 -4 14 11 0 8 6 -7 21 -12 11 -20 24 -17 30 4 5 1 9 -4 9 -6 0 -11 7
-11 15 0 8 -5 15 -11 15 -5 0 -8 4 -5 8 3 5 -5 20 -17 33 -12 13 -21 26 -19
29 1 3 -4 12 -12 22 -8 9 -12 19 -8 22 3 4 -3 13 -14 22 -10 8 -12 13 -4 9 8
-4 5 3 -8 14 -13 11 -23 24 -24 28 -1 12 -22 57 -29 63 -3 3 -12 20 -20 38 -8
17 -17 32 -21 32 -5 0 -8 7 -8 16 0 9 -5 12 -12 8 -6 -4 -8 -3 -5 3 8 13 -24
57 -44 60 -8 2 -20 -2 -27 -9z"/>
<path d="M4602 2403 c-6 -3 -10 -9 -7 -14 4 -5 0 -6 -8 -3 -8 3 -21 -1 -28 -8
-16 -14 -16 -14 -113 -33 -51 -10 -186 -14 -505 -14 -240 0 -438 -1 -441 -1
-4 0 -352 0 -778 2 -62 0 -115 4 -118 9 -3 5 -13 3 -24 -3 -14 -9 -22 -9 -34
1 -9 8 -16 10 -16 5 0 -5 -33 -8 -72 -7 -40 1 -78 -3 -85 -9 -7 -6 -13 -7 -13
-4 0 10 -19 -12 -47 -51 -13 -18 -23 -37 -23 -43 0 -5 -5 -10 -11 -10 -5 0 -7
-5 -4 -10 3 -6 0 -13 -8 -16 -9 -3 -18 -17 -22 -31 -3 -13 -10 -30 -16 -36
-21 -26 -57 -86 -64 -106 -3 -12 -11 -21 -16 -21 -6 0 -8 -4 -4 -9 3 -5 -1
-16 -9 -24 -8 -8 -12 -17 -9 -21 4 -3 1 -6 -5 -6 -7 0 -12 -7 -12 -15 0 -8 -5
-15 -12 -15 -6 0 -9 -3 -5 -6 3 -4 -1 -13 -9 -21 -8 -8 -11 -19 -8 -25 4 -7 2
-8 -4 -4 -11 6 -13 3 -12 -19 0 -5 -8 -16 -40 -54 -8 -10 -16 -24 -18 -32 -2
-7 -9 -17 -15 -21 -7 -4 -7 -8 -2 -8 6 0 6 -3 -1 -8 -6 -4 -24 -29 -39 -57
-16 -27 -34 -53 -40 -57 -6 -5 -6 -8 0 -8 6 0 1 -7 -9 -15 -11 -8 -16 -15 -12
-15 4 0 0 -10 -8 -22 -19 -27 -20 -52 -3 -67 10 -8 17 -7 25 1 7 7 12 8 12 2
0 -6 15 -9 33 -7 37 3 903 3 1319 0 167 -1 284 -6 280 -11 -3 -5 1 -6 8 -1 7
4 76 9 154 11 147 3 163 5 183 17 6 4 14 3 18 -3 4 -6 12 -5 21 5 9 8 20 12
26 9 6 -4 17 1 25 11 8 12 13 14 13 5 0 -10 4 -10 18 2 9 8 25 18 35 21 9 4
17 11 17 17 0 6 4 9 9 6 11 -7 101 76 101 92 0 7 4 11 9 7 5 -3 12 4 16 15 3
11 11 20 17 20 6 0 8 3 5 6 -4 4 3 15 15 25 11 11 18 19 13 19 -4 0 -2 6 4 13
6 8 7 18 3 22 -4 5 -2 5 5 1 8 -4 15 2 19 19 3 14 11 22 17 18 6 -4 8 0 4 11
-4 10 -1 19 8 22 8 3 17 16 21 27 4 12 15 34 25 48 10 14 16 29 12 32 -3 4 2
9 11 13 9 3 13 10 10 15 -3 5 -2 9 3 9 4 0 14 15 22 33 8 17 21 40 29 50 8 9
11 17 6 17 -5 0 -4 4 1 8 12 8 49 64 50 74 0 3 10 18 22 31 12 14 19 28 16 31
-4 3 -1 6 6 6 7 0 9 5 6 10 -3 6 -1 10 4 10 6 0 11 5 11 11 0 7 8 18 18 26 10
9 11 12 2 7 -10 -5 -8 1 5 17 45 55 54 95 17 82z"/>
<path d="M3970 1361 c0 -5 -11 -8 -25 -6 -14 1 -25 -1 -25 -6 0 -8 -88 -24
-122 -22 -10 0 -18 -5 -18 -11 0 -6 -4 -5 -9 3 -6 9 -10 10 -16 2 -5 -9 -10
-9 -21 0 -8 6 -14 8 -14 3 0 -5 -13 -9 -30 -9 -16 0 -30 4 -30 8 0 5 -6 5 -12
0 -17 -10 -68 -11 -74 -1 -3 5 -11 5 -17 1 -18 -11 -39 -13 -57 -3 -9 5 -23 4
-33 -1 -11 -7 -17 -6 -17 1 0 7 -6 8 -18 1 -10 -5 -24 -6 -32 -1 -8 5 -21 5
-30 0 -9 -5 -22 -5 -30 0 -8 5 -21 5 -30 0 -9 -5 -22 -5 -30 0 -8 5 -19 6 -25
2 -14 -9 -236 -9 -242 1 -2 4 -10 4 -16 0 -17 -10 -258 -11 -279 -1 -9 4 -19
4 -22 0 -3 -5 -27 -7 -53 -5 -70 5 -75 5 -105 -1 -16 -3 -28 0 -28 6 0 7 -4 7
-13 0 -8 -7 -18 -7 -27 -2 -8 5 -21 5 -31 -1 -11 -6 -20 -5 -24 1 -4 6 -13 7
-24 1 -10 -6 -23 -6 -31 -1 -9 5 -20 4 -29 -3 -8 -7 -12 -7 -9 -2 4 7 -39 10
-123 11 -92 1 -127 -2 -122 -10 5 -7 2 -7 -8 1 -18 15 -121 14 -112 -1 5 -8 3
-8 -8 0 -20 15 -59 15 -59 1 0 -8 -3 -8 -8 -2 -9 13 -72 15 -72 2 0 -5 -6 -4
-14 2 -10 8 -16 9 -21 1 -3 -6 -10 -8 -14 -6 -4 3 -14 -6 -21 -19 -7 -14 -17
-25 -22 -25 -4 0 -8 -5 -8 -11 0 -6 -9 -23 -20 -39 -11 -15 -17 -30 -13 -34 3
-3 1 -6 -5 -6 -7 0 -12 -7 -12 -15 0 -8 -4 -15 -10 -15 -5 0 -10 -7 -10 -15 0
-8 -5 -15 -11 -15 -5 0 -8 -4 -5 -9 3 -5 -1 -14 -9 -21 -8 -7 -12 -16 -9 -21
3 -5 -2 -12 -10 -15 -9 -3 -13 -10 -10 -15 3 -5 1 -9 -5 -9 -5 0 -13 -10 -17
-22 -4 -13 -14 -29 -23 -36 -13 -11 -13 -12 -1 -7 8 4 6 -1 -4 -9 -11 -9 -16
-16 -11 -16 4 0 0 -9 -9 -19 -10 -11 -15 -24 -12 -30 4 -5 1 -13 -5 -17 -8 -4
-9 -3 -5 4 4 7 5 12 2 12 -3 0 -15 -19 -27 -42 -12 -24 -28 -51 -37 -60 -8
-10 -11 -18 -7 -18 5 0 -1 -9 -13 -21 -12 -11 -20 -24 -17 -29 3 -4 -2 -10
-10 -14 -8 -3 -15 -12 -15 -21 0 -8 -4 -15 -10 -15 -5 0 -10 -7 -10 -15 0 -9
-7 -18 -16 -22 -13 -5 -13 -7 -2 -14 10 -7 10 -9 0 -9 -7 0 -17 -12 -23 -28
-18 -45 -27 -92 -18 -92 4 0 5 -8 2 -17 -5 -12 -2 -15 10 -10 9 3 17 3 17 -1
0 -5 36 -8 80 -8 47 1 80 -3 80 -9 0 -6 3 -6 8 1 9 13 64 13 74 -1 5 -6 8 -6
8 1 0 6 18 10 40 10 22 -1 40 -5 40 -9 0 -5 5 -5 11 -1 16 9 190 11 196 1 2
-4 10 -4 16 0 18 11 36 12 43 2 3 -5 11 -6 17 -2 17 10 210 11 224 1 6 -5 14
-5 16 -1 6 10 168 10 184 0 6 -4 13 -4 16 0 11 10 117 9 117 -1 0 -6 5 -5 11
1 7 7 23 8 45 3 20 -5 37 -4 40 2 3 5 11 4 20 -3 11 -9 14 -8 14 2 0 9 3 10 8
4 4 -6 111 -10 284 -10 153 0 278 -4 278 -8 0 -5 6 -5 13 0 6 4 28 8 47 10 32
2 75 9 75 13 0 1 11 4 25 6 14 3 27 9 28 14 2 6 8 8 12 5 5 -3 18 3 30 15 11
11 22 20 25 20 3 0 12 0 20 0 9 0 12 6 9 15 -4 10 0 15 10 15 9 0 32 16 50 35
19 19 32 35 30 35 -3 0 6 11 20 24 15 13 26 28 26 35 0 6 5 11 11 11 5 0 8 4
5 9 -3 5 0 11 8 14 7 3 17 18 20 33 4 16 16 34 27 42 11 7 17 17 14 22 -2 4 4
19 15 33 11 14 20 28 20 31 0 4 9 16 20 28 10 12 17 25 14 30 -3 4 2 11 11 14
9 4 14 13 11 20 -3 8 -1 14 4 14 6 0 10 7 10 16 0 8 5 12 10 9 6 -3 10 1 10
10 0 9 11 31 25 49 14 18 22 36 18 39 -3 4 -1 7 5 7 7 0 12 7 12 15 0 8 8 15
18 16 10 0 12 3 5 6 -7 2 -13 9 -13 14 0 6 4 8 8 5 5 -3 19 13 30 35 46 86 57
104 70 112 7 5 10 12 7 17 -3 5 -1 11 5 15 18 11 10 25 -15 25 -14 0 -25 -4
-25 -9z"/>
</g>
</svg>
