<?xml version="1.0" encoding="utf-8"?>
<!-- Generator: Adobe Illustrator 21.0.0, SVG Export Plug-In . SVG Version: 6.00 Build 0) -->
<svg version="1.1" id="Layer_1" xmlns="http://www.w3.org/2000/svg" xmlns:xlink="http://www.w3.org/1999/xlink" x="0px" y="0px"
	 viewBox="0 0 512 512" style="enable-background:new 0 0 512 512;" xml:space="preserve">
<style type="text/css">
	.st0{fill:#90CAF9;}
	.st1{fill:#283593;}
	.st2{fill:#3F51B5;}
	.st3{fill:#42A5F5;}
</style>
<g>
	<path class="st0" d="M175.9,370.1h-31.5v-52.5h52.5l5.3,19.7C206.1,354.4,193,370.1,175.9,370.1z"/>
	<path class="st0" d="M433.2,409.5c0,0-154.9-91.9-236.3-91.9V133.8c76.1,0,236.3-91.9,236.3-91.9V409.5z"/>
	<circle class="st1" cx="65.6" cy="225.7" r="65.6"/>
	<path class="st1" d="M472.6,186.3h-39.4v78.8h39.4c22.3,0,39.4-17.1,39.4-39.4S494.9,186.3,472.6,186.3z"/>
	<path class="st1" d="M191.7,477.8c-11.8,7.9-32.8,15.8-60.4,18.4c-7.9,1.3-15.8-3.9-18.4-13.1L55.1,303.2
		c0,0,115.5-81.4,115.5,14.4c0,72.2,19.7,110.3,28.9,124.7c6.6,9.2,6.6,21,0,30.2C196.9,475.1,194.3,476.5,191.7,477.8z"/>
	<path class="st2" d="M65.6,317.6h131.3V133.8H65.6c-14.4,0-26.3,11.8-26.3,26.3v131.3C39.4,305.8,51.2,317.6,65.6,317.6z"/>
	<path class="st3" d="M446.4,435.8L446.4,435.8c-14.4,0-26.3-11.8-26.3-26.3V41.9c0-14.4,11.8-26.3,26.3-26.3
		c14.4,0,26.3,11.8,26.3,26.3v367.6C472.6,423.9,460.8,435.8,446.4,435.8z"/>
</g>
</svg>
